<?xml version="1.0" encoding="utf-8"?>
<!-- Generator: Adobe Illustrator 13.0.0, SVG Export Plug-In . SVG Version: 6.00 Build 14948)  -->
<!DOCTYPE svg PUBLIC "-//W3C//DTD SVG 1.1//EN" "http://www.w3.org/Graphics/SVG/1.1/DTD/svg11.dtd">
<svg version="1.1" xmlns="http://www.w3.org/2000/svg" xmlns:xlink="http://www.w3.org/1999/xlink" x="0px" y="0px" width="800px"
	 height="800px" viewBox="0 0 800 800" enable-background="new 0 0 800 800" xml:space="preserve">
<g id="Layer_5">
	<radialGradient id="SVGID_1_" cx="400.5361" cy="394.9155" r="232.0163" gradientUnits="userSpaceOnUse">
		<stop  offset="0" style="stop-color:#C7F7BF"/>
		<stop  offset="0.3949" style="stop-color:#C5F6BD"/>
		<stop  offset="0.5372" style="stop-color:#BFF2B6"/>
		<stop  offset="0.6386" style="stop-color:#B3EAAB"/>
		<stop  offset="0.7206" style="stop-color:#A3E09A"/>
		<stop  offset="0.7909" style="stop-color:#8ED284"/>
		<stop  offset="0.8531" style="stop-color:#74C168"/>
		<stop  offset="0.9093" style="stop-color:#56AC48"/>
		<stop  offset="0.9593" style="stop-color:#339524"/>
		<stop  offset="1" style="stop-color:#117F00"/>
	</radialGradient>
	<circle fill="url(#SVGID_1_)" cx="400.536" cy="394.916" r="232.017"/>
</g>
<g id="Layer_1">
	<circle fill="#606060" cx="261.868" cy="521.56" r="33.572"/>
	<circle fill="#606060" cx="537.369" cy="262.06" r="33.573"/>
	<circle cx="589.369" cy="393.059" r="33.572"/>
	<circle cx="209.369" cy="393.059" r="33.573"/>
	<circle cx="399.368" cy="583.059" r="33.572"/>
	<circle cx="399.369" cy="203.059" r="33.573"/>
	<path fill="#FFFFFF" d="M213.404,374.84v35.918H203.22V374.84H213.404z"/>
	<path fill="#FFFFFF" d="M405.404,565.34v35.918H395.22V565.34H405.404z"/>
	<path fill="#FFFFFF" d="M596.404,374.84v35.918h-10.184V374.84H596.404z"/>
	<path fill="#FFFFFF" d="M405.404,184.34v35.918H395.22V184.34H405.404z"/>
	<path fill="#FFFFFF" d="M247.391,526.156v-8.789c0-5.117,1.274-9.16,3.823-12.129s6.021-4.453,10.415-4.453
		s7.871,1.484,10.43,4.453c2.559,2.969,3.838,7.012,3.838,12.129v8.789c0,5.117-1.279,9.165-3.838,12.144
		c-2.559,2.979-6.035,4.468-10.43,4.468s-7.866-1.489-10.415-4.468S247.391,531.273,247.391,526.156z M258.787,515.023V528.5
		c0,2.441,0.947,3.662,2.842,3.662c1.914,0,2.871-1.221,2.871-3.662v-13.477c0-2.441-0.957-3.662-2.871-3.662
		C259.734,511.361,258.787,512.582,258.787,515.023z"/>
	<path fill="#FFFFFF" d="M524.391,266.156v-8.789c0-5.117,1.274-9.16,3.823-12.129s6.021-4.453,10.415-4.453
		s7.871,1.484,10.43,4.453s3.838,7.012,3.838,12.129v8.789c0,5.117-1.279,9.165-3.838,12.144s-6.035,4.468-10.43,4.468
		s-7.866-1.489-10.415-4.468S524.391,271.273,524.391,266.156z M535.787,255.023V268.5c0,2.441,0.947,3.662,2.842,3.662
		c1.914,0,2.871-1.221,2.871-3.662v-13.477c0-2.441-0.957-3.662-2.871-3.662C536.734,251.361,535.787,252.582,535.787,255.023z"/>
</g>
<g id="Layer_3">
	<polygon fill="#606060" points="528.262,284.392 499.782,311.708 499.782,497.922 323.789,338.293 323.789,487.922 288.66,514.207 
		272.739,497.608 302.534,473.233 302.534,290.178 477.532,449.565 477.532,300.178 512.341,267.793 	"/>
	<polygon points="414.387,226.164 472.502,296.986 472.365,436.201 296.509,276.572 296.509,405.254 236.223,405.254 
		234.749,381.512 275.253,381.512 275.253,230.457 450.252,389.844 450.252,304.457 392.743,233.274 	"/>
	<polygon points="387.836,562.077 329.534,491.408 329.534,352.193 505.523,511.355 505.523,381.512 565.528,381.512 
		567.058,405.254 526.554,405.254 526.905,557.416 351.591,398.491 351.764,483.878 409.462,554.909 	"/>
</g>
<g id="Layer_4">
	<g>
		<path d="M182.558,604.935l-8.967,45.65l27.491-27.904c1.787-1.813,3.515-2.79,5.188-2.93c1.671-0.139,3.169,0.442,4.492,1.746
			c1.365,1.345,1.996,2.859,1.892,4.544c-0.104,1.685-1.049,3.434-2.835,5.247l-36.351,36.896
			c-4.057,4.118-7.792,4.495-11.205,1.132c-0.854-0.841-1.5-1.72-1.942-2.638c-0.441-0.918-0.698-1.938-0.769-3.06
			c-0.072-1.122-0.012-2.292,0.18-3.512c0.192-1.219,0.4-2.453,0.624-3.705l9.1-44.889l-27.082,27.488
			c-1.766,1.792-3.517,2.737-5.252,2.834c-1.736,0.098-3.255-0.494-4.556-1.776c-1.344-1.324-1.964-2.85-1.86-4.576
			c0.103-1.727,1.027-3.475,2.772-5.246l35.657-36.192c1.513-1.536,2.871-2.573,4.075-3.111c1.351-0.562,2.795-0.684,4.333-0.366
			c1.538,0.316,2.851,1.012,3.938,2.083c0.853,0.841,1.447,1.7,1.782,2.576c0.334,0.876,0.5,1.774,0.497,2.696
			c-0.004,0.921-0.133,1.991-0.389,3.211S182.845,603.62,182.558,604.935z"/>
		<path d="M251.845,663.771l-25.199-16.377l-8.813,13.561l23.203,15.079c1.707,1.109,2.732,2.32,3.076,3.633
			c0.343,1.313,0.107,2.598-0.708,3.853c-0.816,1.256-1.896,2.01-3.238,2.262c-1.343,0.253-2.88-0.185-4.613-1.311l-23.203-15.079
			l-10.208,15.707l26.065,16.939c1.757,1.143,2.816,2.412,3.178,3.807c0.36,1.396,0.101,2.771-0.78,4.127
			c-0.849,1.307-1.985,2.078-3.406,2.314c-1.422,0.236-3.012-0.217-4.77-1.358l-30.396-19.755c-2.436-1.583-3.837-3.262-4.202-5.034
			c-0.366-1.773,0.235-3.866,1.802-6.276l26.976-41.508c1.044-1.607,2.136-2.765,3.274-3.472c1.138-0.707,2.366-0.962,3.685-0.766
			s2.77,0.809,4.352,1.837l29.53,19.191c1.783,1.159,2.851,2.415,3.203,3.77c0.352,1.354,0.112,2.671-0.72,3.952
			c-0.849,1.306-1.963,2.072-3.343,2.301C255.21,665.396,253.628,664.93,251.845,663.771z"/>
		<path d="M253.332,697.138l11.547-29.49c0.982-2.51,2.284-4.171,3.905-4.983c1.621-0.813,3.351-0.858,5.192-0.139
			c1.924,0.754,3.205,1.979,3.843,3.676c0.638,1.697,0.466,3.801-0.517,6.311l-11.809,30.159c-1.343,3.431-2.082,6.445-2.216,9.047
			c-0.134,2.601,0.526,4.918,1.982,6.951c1.455,2.033,3.94,3.737,7.454,5.113c4.852,1.899,8.787,1.953,11.805,0.16
			c3.018-1.793,5.553-5.312,7.606-10.555l11.907-30.41c0.994-2.537,2.291-4.208,3.893-5.013c1.601-0.804,3.336-0.841,5.205-0.108
			c1.868,0.73,3.138,1.944,3.81,3.638c0.671,1.694,0.51,3.811-0.483,6.348l-11.547,29.49c-1.878,4.797-3.913,8.615-6.102,11.456
			c-2.19,2.842-5.057,4.968-8.6,6.378c-3.04,1.19-6.223,1.681-9.549,1.472c-3.327-0.21-6.971-1.09-10.931-2.64
			c-4.713-1.846-8.571-3.943-11.575-6.293c-3.004-2.35-5.162-5.013-6.473-7.986c-1.313-2.974-1.818-6.323-1.517-10.049
			C250.463,705.944,251.52,701.767,253.332,697.138z"/>
		<path d="M367.202,701.275l-14.332-2.538l-8.343,47.108c-0.48,2.714-1.442,4.619-2.883,5.717c-1.442,1.098-3.121,1.478-5.038,1.138
			c-1.946-0.345-3.414-1.289-4.402-2.832c-0.989-1.544-1.246-3.657-0.771-6.341l8.343-47.109l-14.332-2.538
			c-2.242-0.396-3.82-1.186-4.736-2.367c-0.916-1.181-1.23-2.582-0.943-4.204c0.298-1.681,1.101-2.907,2.408-3.68
			c1.307-0.771,3.038-0.967,5.19-0.586l41.757,7.396c2.27,0.401,3.87,1.202,4.798,2.4c0.928,1.199,1.249,2.609,0.961,4.23
			c-0.287,1.622-1.079,2.828-2.374,3.617C371.21,701.477,369.442,701.672,367.202,701.275z"/>
		<path d="M396.26,729.009l-4.671,0.076l0.343,21.155c0.045,2.784-0.536,4.846-1.742,6.183c-1.207,1.338-2.798,2.022-4.774,2.055
			c-2.126,0.034-3.784-0.628-4.975-1.986c-1.19-1.357-1.807-3.369-1.85-6.035l-0.821-50.665c-0.046-2.875,0.563-4.966,1.83-6.274
			s3.337-1.986,6.212-2.033l21.694-0.352c2.994-0.049,5.557,0.038,7.688,0.258c2.13,0.22,4.055,0.705,5.774,1.456
			c2.08,0.835,3.926,2.048,5.54,3.64c1.613,1.591,2.849,3.45,3.707,5.578c0.857,2.128,1.307,4.39,1.346,6.784
			c0.079,4.911-1.242,8.856-3.964,11.836c-2.723,2.979-6.889,5.129-12.498,6.447c2.386,1.22,4.677,3.04,6.873,5.46
			c2.195,2.42,4.161,5.002,5.898,7.744c1.736,2.742,3.095,5.222,4.074,7.437c0.979,2.216,1.476,3.743,1.489,4.581
			c0.015,0.869-0.249,1.733-0.789,2.597c-0.54,0.862-1.285,1.548-2.235,2.058c-0.951,0.51-2.054,0.774-3.312,0.795
			c-1.498,0.024-2.762-0.308-3.79-0.994c-1.03-0.687-1.92-1.564-2.671-2.63c-0.752-1.066-1.772-2.637-3.064-4.713l-5.489-8.807
			c-1.97-3.232-3.725-5.69-5.264-7.373c-1.54-1.682-3.094-2.825-4.661-3.429S398.625,728.971,396.26,729.009z M403.447,701.217
			l-12.307,0.199l0.293,18.102l11.948-0.194c3.203-0.052,5.895-0.372,8.071-0.962c2.177-0.589,3.831-1.56,4.962-2.91
			c1.131-1.352,1.678-3.195,1.641-5.53c-0.03-1.826-0.521-3.429-1.471-4.807c-0.951-1.377-2.256-2.396-3.914-3.059
			C411.104,701.423,408.029,701.143,403.447,701.217z"/>
		<path d="M491.22,737.87l-4.854-7.392l-26.143,5.776l-1.248,8.925c-0.488,3.482-1.032,5.88-1.631,7.192
			c-0.601,1.313-1.864,2.184-3.794,2.61c-1.639,0.361-3.219,0.082-4.74-0.839c-1.522-0.921-2.451-2.142-2.788-3.663
			c-0.193-0.877-0.248-1.815-0.162-2.816c0.086-1,0.28-2.408,0.585-4.224l7.221-45.394c0.203-1.302,0.448-2.866,0.734-4.693
			c0.286-1.826,0.68-3.378,1.18-4.654c0.5-1.275,1.281-2.392,2.343-3.347s2.484-1.63,4.269-2.024c1.813-0.4,3.402-0.392,4.768,0.027
			s2.54,1.088,3.525,2.004c0.984,0.918,1.87,1.941,2.656,3.071s1.804,2.646,3.053,4.547l25.969,37.782
			c2.014,2.867,3.18,5.019,3.496,6.45c0.329,1.492,0.01,2.996-0.958,4.514c-0.969,1.518-2.329,2.47-4.084,2.857
			c-1.024,0.227-1.941,0.237-2.753,0.033c-0.813-0.204-1.536-0.564-2.172-1.084c-0.637-0.519-1.383-1.365-2.241-2.541
			C492.593,739.814,491.85,738.774,491.22,737.87z M461.483,725.718l19.212-4.246l-15.558-24.395L461.483,725.718z"/>
		<path d="M510.646,676.933l18.963,44.021l24.837-10.698c1.98-0.854,3.707-1.026,5.181-0.521c1.474,0.508,2.524,1.489,3.152,2.946
			c0.64,1.485,0.636,2.914-0.013,4.286s-1.977,2.489-3.984,3.354L529.2,733.063c-2.668,1.149-4.841,1.385-6.52,0.705
			c-1.679-0.678-3.086-2.339-4.224-4.979l-20.064-46.578c-1.066-2.476-1.31-4.572-0.729-6.29s1.778-2.967,3.594-3.749
			c1.843-0.794,3.599-0.824,5.268-0.093C508.193,672.813,509.567,674.43,510.646,676.933z"/>
		<path d="M572.968,704.283l-26.557-44.573c-1.38-2.315-1.888-4.366-1.521-6.153c0.364-1.786,1.383-3.177,3.056-4.174
			c1.724-1.026,3.461-1.285,5.21-0.777c1.75,0.51,3.323,1.935,4.718,4.275l26.557,44.573c1.395,2.341,1.902,4.409,1.525,6.202
			c-0.378,1.794-1.43,3.205-3.152,4.231c-1.647,0.981-3.354,1.204-5.118,0.67S574.348,706.599,572.968,704.283z"/>
		<path d="M603.989,623.727l-11.407,9.041l29.716,37.494c1.712,2.159,2.5,4.143,2.365,5.949c-0.136,1.807-0.965,3.315-2.49,4.524
			c-1.549,1.228-3.229,1.699-5.04,1.415c-1.812-0.284-3.563-1.494-5.256-3.63l-29.716-37.494l-11.406,9.04
			c-1.784,1.414-3.422,2.072-4.913,1.974c-1.492-0.098-2.749-0.793-3.772-2.084c-1.06-1.337-1.445-2.752-1.155-4.242
			c0.289-1.49,1.291-2.915,3.005-4.273l33.234-26.339c1.807-1.433,3.467-2.098,4.979-1.998c1.513,0.101,2.78,0.797,3.804,2.087
			c1.022,1.291,1.399,2.684,1.131,4.176C606.799,620.86,605.772,622.313,603.989,623.727z"/>
		<path d="M657.598,636.848l-15.646-13.841l-29.329-4.475c-2.615-0.434-4.587-0.85-5.916-1.245
			c-1.329-0.396-2.341-0.901-3.036-1.517c-1.144-1.013-1.739-2.328-1.785-3.948s0.506-3.081,1.657-4.382
			c1.21-1.368,2.515-2.063,3.914-2.086c1.398-0.021,3.879,0.283,7.439,0.913l23.127,4.027l-6.727-22.565
			c-0.424-1.374-0.781-2.529-1.071-3.467c-0.291-0.937-0.508-1.878-0.65-2.824s-0.112-1.828,0.093-2.647
			c0.204-0.818,0.664-1.632,1.378-2.439c1.111-1.256,2.448-1.942,4.011-2.06c1.563-0.116,2.883,0.301,3.96,1.254
			c0.874,0.773,1.561,1.761,2.059,2.961c0.497,1.2,1.063,3.001,1.699,5.401l8.019,29.105l15.645,13.841
			c2.042,1.806,3.15,3.626,3.326,5.461s-0.382,3.482-1.671,4.939c-1.31,1.48-2.871,2.239-4.683,2.276
			S659.661,638.673,657.598,636.848z"/>
	</g>
	<g>
		<path d="M180.397,126.885l43.878,15.461l-23.644-31.231c-1.537-2.029-2.253-3.881-2.15-5.556c0.103-1.674,0.895-3.072,2.375-4.193
			c1.528-1.157,3.118-1.562,4.77-1.217c1.651,0.347,3.246,1.534,4.782,3.563l31.264,41.295c3.489,4.608,3.323,8.359-0.497,11.251
			c-0.955,0.723-1.919,1.236-2.891,1.541c-0.972,0.304-2.018,0.411-3.139,0.319c-1.12-0.09-2.27-0.318-3.448-0.685
			c-1.179-0.366-2.371-0.75-3.577-1.152l-43.105-15.483l23.292,30.765c1.518,2.006,2.201,3.875,2.046,5.606
			c-0.154,1.731-0.959,3.149-2.416,4.252c-1.504,1.139-3.103,1.532-4.797,1.181s-3.29-1.519-4.791-3.5l-30.667-40.507
			c-1.302-1.719-2.132-3.212-2.491-4.481c-0.36-1.417-0.272-2.864,0.264-4.341c0.535-1.476,1.412-2.674,2.629-3.597
			c0.955-0.723,1.891-1.187,2.806-1.392c0.916-0.205,1.829-0.238,2.74-0.102c0.911,0.137,1.952,0.419,3.121,0.848
			C177.923,125.96,179.138,126.411,180.397,126.885z"/>
		<path d="M268.492,78.364l-27.121,12.948l6.967,14.594l24.972-11.921c1.838-0.877,3.406-1.12,4.705-0.728
			c1.299,0.393,2.271,1.264,2.916,2.615c0.646,1.352,0.725,2.666,0.24,3.943c-0.486,1.277-1.661,2.361-3.525,3.251l-24.972,11.922
			l8.07,16.905l28.053-13.393c1.891-0.903,3.527-1.144,4.906-0.725c1.378,0.421,2.417,1.36,3.113,2.82
			c0.671,1.406,0.736,2.777,0.196,4.113c-0.541,1.336-1.757,2.456-3.648,3.359l-32.715,15.619c-2.622,1.251-4.784,1.57-6.487,0.957
			c-1.704-0.613-3.174-2.218-4.413-4.813l-21.328-44.674c-0.825-1.729-1.243-3.264-1.252-4.604c-0.009-1.339,0.415-2.521,1.27-3.543
			c0.856-1.022,2.135-1.94,3.838-2.753l31.783-15.173c1.918-0.916,3.548-1.171,4.887-0.765c1.338,0.406,2.337,1.299,2.995,2.677
			c0.671,1.406,0.743,2.756,0.217,4.053C271.633,76.342,270.411,77.448,268.492,78.364z"/>
		<path d="M330.697,60.237l-14.063,3.752l12.335,46.224c0.711,2.663,0.645,4.796-0.198,6.399c-0.843,1.604-2.205,2.657-4.085,3.159
			c-1.91,0.51-3.639,0.274-5.187-0.708c-1.548-0.981-2.674-2.789-3.376-5.422l-12.335-46.225l-14.063,3.753
			c-2.199,0.587-3.963,0.539-5.292-0.145c-1.329-0.684-2.206-1.821-2.631-3.413c-0.44-1.649-0.231-3.1,0.628-4.353
			c0.859-1.252,2.345-2.16,4.458-2.724l40.972-10.934c2.228-0.595,4.016-0.544,5.364,0.149c1.348,0.694,2.234,1.837,2.658,3.428
			c0.425,1.592,0.216,3.019-0.624,4.282C334.416,58.726,332.896,59.65,330.697,60.237z"/>
		<path d="M398.239,98.337l-12.173-39.042l-9.238,39.875c-0.722,3.025-1.304,5.198-1.747,6.519
			c-0.443,1.321-1.258,2.521-2.445,3.602c-1.187,1.08-2.798,1.66-4.833,1.739c-1.646,0.064-3.013-0.19-4.098-0.762
			c-1.086-0.572-1.981-1.407-2.682-2.503c-0.703-1.097-1.293-2.407-1.771-3.932c-0.479-1.524-0.909-2.938-1.289-4.243L345.286,55.71
			c-0.758-2.547-1.164-4.495-1.216-5.842c-0.066-1.706,0.476-3.166,1.628-4.379c1.151-1.214,2.61-1.855,4.376-1.924
			c2.424-0.094,4.085,0.621,4.983,2.144c0.898,1.524,1.72,3.754,2.463,6.692l10.113,38.089l8.252-36.331
			c0.611-2.781,1.173-4.901,1.686-6.359c0.512-1.458,1.392-2.736,2.638-3.834c1.245-1.097,2.976-1.689,5.19-1.775
			c2.245-0.087,4.009,0.391,5.293,1.435c1.284,1.044,2.19,2.201,2.72,3.468c0.528,1.268,1.255,3.368,2.178,6.299l11.14,35.576
			l7.123-38.759c0.341-2.021,0.676-3.607,1.007-4.759c0.329-1.151,0.933-2.194,1.812-3.127c0.877-0.934,2.184-1.434,3.92-1.501
			c1.735-0.067,3.231,0.452,4.488,1.556c1.257,1.105,1.919,2.526,1.986,4.261c0.048,1.228-0.205,3.2-0.759,5.918l-9.229,44.73
			c-0.632,3.022-1.168,5.238-1.607,6.649c-0.439,1.411-1.23,2.663-2.371,3.756c-1.142,1.093-2.789,1.682-4.944,1.766
			c-2.035,0.079-3.686-0.367-4.952-1.336s-2.164-2.081-2.692-3.334C399.984,103.537,399.227,101.386,398.239,98.337z"/>
		<path d="M473.549,49.602c6.681,1.413,12.129,3.981,16.347,7.704c4.217,3.724,7.028,8.344,8.434,13.859
			c1.404,5.516,1.395,11.644-0.031,18.382c-1.053,4.981-2.685,9.366-4.894,13.153s-4.978,6.891-8.305,9.309
			c-3.328,2.418-7.122,4.004-11.383,4.756s-8.926,0.592-13.994-0.48c-5.04-1.066-9.381-2.833-13.021-5.302
			c-3.642-2.469-6.482-5.464-8.522-8.988c-2.041-3.523-3.302-7.509-3.784-11.958c-0.483-4.448-0.213-9.09,0.81-13.925
			c1.047-4.951,2.717-9.343,5.013-13.174c2.294-3.831,5.096-6.912,8.405-9.242c3.309-2.331,7.06-3.856,11.253-4.576
			C464.068,48.4,468.626,48.561,473.549,49.602z M485.088,86.662c0.997-4.717,1.1-8.965,0.308-12.745
			c-0.793-3.779-2.415-6.854-4.867-9.226c-2.453-2.37-5.511-3.943-9.173-4.717c-2.608-0.552-5.122-0.57-7.541-0.057
			c-2.421,0.514-4.627,1.54-6.62,3.077c-1.994,1.538-3.76,3.667-5.299,6.387c-1.54,2.721-2.693,5.897-3.462,9.53
			c-0.774,3.663-1.014,7.071-0.716,10.225c0.297,3.155,1.081,5.884,2.354,8.189c1.272,2.305,2.898,4.171,4.877,5.6
			c1.978,1.429,4.271,2.418,6.879,2.97c3.34,0.706,6.586,0.52,9.737-0.558c3.15-1.079,5.923-3.186,8.316-6.323
			C482.273,95.878,484.01,91.76,485.088,86.662z"/>
		<path d="M523.361,105.58l-4.258-1.924l-8.713,19.281c-1.146,2.538-2.552,4.155-4.213,4.85c-1.662,0.695-3.393,0.636-5.194-0.178
			c-1.938-0.876-3.154-2.182-3.651-3.918s-0.197-3.818,0.9-6.248L519.1,71.267c1.184-2.62,2.627-4.251,4.331-4.895
			c1.703-0.643,3.866-0.373,6.485,0.811l19.772,8.935c2.729,1.233,5.01,2.404,6.843,3.511c1.833,1.108,3.367,2.368,4.602,3.78
			c1.525,1.643,2.678,3.527,3.459,5.655c0.78,2.127,1.104,4.336,0.974,6.626c-0.132,2.291-0.69,4.527-1.677,6.71
			c-2.022,4.476-4.9,7.48-8.633,9.014c-3.733,1.534-8.418,1.701-14.055,0.501c1.638,2.12,2.935,4.744,3.888,7.869
			c0.954,3.126,1.631,6.3,2.032,9.521c0.401,3.221,0.572,6.043,0.514,8.464c-0.06,2.422-0.262,4.015-0.607,4.779
			c-0.357,0.792-0.965,1.461-1.82,2.011c-0.857,0.55-1.823,0.853-2.9,0.908c-1.077,0.055-2.188-0.176-3.334-0.693
			c-1.365-0.617-2.366-1.456-3.004-2.516c-0.639-1.061-1.069-2.233-1.294-3.518c-0.226-1.285-0.479-3.141-0.762-5.569l-1.209-10.307
			c-0.402-3.764-0.941-6.735-1.616-8.914s-1.593-3.875-2.753-5.089C527.175,107.648,525.517,106.554,523.361,105.58z
			 M541.716,83.508l-11.217-5.069l-7.455,16.498l10.889,4.92c2.92,1.319,5.49,2.177,7.711,2.573c2.22,0.395,4.13,0.223,5.729-0.517
			c1.6-0.739,2.881-2.174,3.843-4.302c0.752-1.665,0.991-3.323,0.72-4.974c-0.273-1.651-1.019-3.13-2.235-4.436
			C548.552,86.959,545.891,85.395,541.716,83.508z"/>
		<path d="M594.855,109.352l-13.636,18.634l37.264-6.575c1.793-0.32,3.232-0.474,4.316-0.459c1.084,0.014,2.219,0.455,3.403,1.321
			c1.546,1.131,2.466,2.5,2.757,4.105c0.292,1.605-0.04,3.06-0.995,4.365c-1.149,1.571-3.101,2.538-5.851,2.899l-22.16,2.821
			l-0.73,32.642c-0.033,2.277-0.195,4.171-0.485,5.684c-0.291,1.513-0.825,2.801-1.604,3.865c-0.866,1.184-2.084,1.871-3.65,2.06
			c-1.567,0.189-3.148-0.3-4.743-1.467c-1.499-1.097-2.484-2.31-2.959-3.64c-0.474-1.33-0.648-2.765-0.522-4.307
			c0.126-1.541,0.253-2.932,0.383-4.173l1.601-28.888l-14.99,2l-8.038,10.984c-1.628,2.224-3.342,3.501-5.144,3.834
			s-3.501-0.084-5.096-1.252c-0.919-0.672-1.624-1.56-2.116-2.662c-0.493-1.103-0.668-2.232-0.525-3.39
			c0.156-0.924,0.526-1.86,1.108-2.807s1.491-2.267,2.729-3.958l28.916-39.515c1.592-2.175,3.263-3.458,5.014-3.846
			c1.75-0.389,3.447,0.018,5.091,1.221c1.619,1.185,2.536,2.682,2.753,4.492C597.161,105.148,596.464,107.153,594.855,109.352z"/>
	</g>
</g>
<g id="Layer_2">
	<g>
		<g>
			<path d="M399.368,143.972c-137.567,0-249.087,111.52-249.087,249.087s111.52,249.087,249.087,249.087
				s249.087-111.52,249.087-249.087S536.936,143.972,399.368,143.972z M399.368,616.742c-123.536,0-223.683-100.146-223.683-223.683
				c0-123.537,100.146-223.683,223.683-223.683c123.537,0,223.683,100.146,223.683,223.683
				C623.051,516.597,522.905,616.742,399.368,616.742z"/>
		</g>
		<g>
			<path fill="none" d="M399.368,143.972c-137.567,0-249.087,111.52-249.087,249.087s111.52,249.087,249.087,249.087
				s249.087-111.52,249.087-249.087S536.936,143.972,399.368,143.972z M399.368,616.742c-123.536,0-223.683-100.146-223.683-223.683
				c0-123.537,100.146-223.683,223.683-223.683c123.537,0,223.683,100.146,223.683,223.683
				C623.051,516.597,522.905,616.742,399.368,616.742z"/>
		</g>
	</g>
</g>
</svg>
